<?xml version="1.0" encoding="UTF-8" standalone="no"?>
<!-- Created with Inkscape (http://www.inkscape.org/) -->

<svg
   xmlns:dc="http://purl.org/dc/elements/1.1/"
   xmlns:cc="http://creativecommons.org/ns#"
   xmlns:rdf="http://www.w3.org/1999/02/22-rdf-syntax-ns#"
   xmlns:svg="http://www.w3.org/2000/svg"
   xmlns="http://www.w3.org/2000/svg"
   xmlns:sodipodi="http://sodipodi.sourceforge.net/DTD/sodipodi-0.dtd"
   xmlns:inkscape="http://www.inkscape.org/namespaces/inkscape"
   version="1.1"
   id="svg815"
   width="250.66666"
   height="254.83611"
   viewBox="0 0 250.66666 254.83611"
   sodipodi:docname="xbox-icon_3x.svg"
   inkscape:version="0.92.2 (5c3e80d, 2017-08-06)">
  <metadata
     id="metadata821">
    <rdf:RDF>
      <cc:Work
         rdf:about="">
        <dc:format>image/svg+xml</dc:format>
        <dc:type
           rdf:resource="http://purl.org/dc/dcmitype/StillImage" />
        <dc:title></dc:title>
      </cc:Work>
    </rdf:RDF>
  </metadata>
  <defs
     id="defs819" />
  <sodipodi:namedview
     pagecolor="#ffffff"
     bordercolor="#666666"
     borderopacity="1"
     objecttolerance="10"
     gridtolerance="10"
     guidetolerance="10"
     inkscape:pageopacity="0"
     inkscape:pageshadow="2"
     inkscape:window-width="1920"
     inkscape:window-height="1017"
     id="namedview817"
     showgrid="false"
     fit-margin-top="0"
     fit-margin-left="0"
     fit-margin-right="0"
     fit-margin-bottom="0"
     inkscape:zoom="3.3125"
     inkscape:cx="122.61635"
     inkscape:cy="134.44699"
     inkscape:window-x="-8"
     inkscape:window-y="-4"
     inkscape:window-maximized="1"
     inkscape:current-layer="svg815" />
  <path
     style="fill:#b0b0b0;stroke-width:1.33333337"
     d="M 104.50126,254.05654 C 94.225277,252.18714 71.916587,244.01095 63.960997,239.19843 34.240167,221.21961 15.683024,197.77583 4.964007,164.66583 0.054315,149.50027 0,149.09178 0,127.3325 0,106.04807 0.145228,104.87826 4.464979,91.367038 13.37089,63.511288 29.168867,39.240631 41.446517,34.551754 c 7.12342,-2.72046 11.67177,-1.974632 23.94137,3.925844 13.68838,6.582766 35.278773,23.96812 35.278773,28.40772 0,0.90918 -3.651418,5.73174 -8.114263,10.71679 -11.68943,13.05724 -30.16749,37.835762 -38.4674,51.583672 -8.69717,14.40589 -15.13469,29.36293 -18.89907,43.91035 -3.04584,11.7706 -5.01501,34.23637 -3.0009,34.23637 0.67187,0 2.98028,-4.05 5.12981,-9 4.9746,-11.45569 21.3836,-35.99816 34.98985,-52.33333 13.55424,-16.27272 50.792703,-54.666662 53.021453,-54.666662 4.16406,0 58.18314,59.314992 73.02951,80.189162 7.16105,10.06854 14.73959,23.85428 16.93783,30.81083 0.869,2.75 2.05616,5 2.63814,5 2.0602,0 2.82415,-13.61105 1.36295,-24.28305 -1.7784,-12.98872 -5.793,-24.08732 -14.84876,-41.05028 -11.53929,-21.61505 -20.31688,-33.593 -49.31471,-67.295242 l -6.85053,-7.96191 7.19304,-6.479204 c 9.13072,-8.224571 26.45348,-19.823616 36.42091,-24.386851 13.71072,-6.276979 20.6262,-3.483361 33.13304,13.384611 10.00761,13.497264 15.55325,24.526294 21.17746,42.117194 4.31587,13.498802 4.46164,14.673512 4.46164,35.954732 0,21.26765 -0.14842,22.46604 -4.45882,36 -5.70078,17.89955 -12.67311,31.28853 -23.26659,44.67884 -15.22384,19.24315 -35.49841,33.23592 -59.89492,41.33731 -14.04695,4.66458 -16.28619,5.02412 -33.713,5.41297 -10.26667,0.22909 -21.4411,-0.0883 -24.83207,-0.70508 z M 113.14443,38.199968 C 97.426912,26.94018 81.241737,19.252684 71.367997,18.357366 c -4.41907,-0.400707 -8.03466,-1.284266 -8.03466,-1.963464 0,-1.84079 18.12454,-9.865709 30.13995,-13.344929 C 102.485,0.43951357 107.07028,7.075673e-4 125.33333,1.5672977e-6 145.1093,-7.634327e-4 147.54268,0.27716757 158.66666,3.807206 c 13.36914,4.242506 27.86356,10.480497 29.13598,12.539301 0.5076,0.821327 -2.52915,1.705391 -7.79514,2.269329 -10.39525,1.113238 -28.1305,9.310859 -43.60946,20.15725 -5.67182,3.97435 -10.78167,7.221041 -11.35522,7.214869 -0.57355,-0.0061 -5.92783,-3.510767 -11.89839,-7.787987 z"
     id="path831"
     inkscape:connector-curvature="0" />
</svg>
