<?xml version="1.0" encoding="UTF-8" standalone="no"?>
<!-- Created with Inkscape (http://www.inkscape.org/) -->

<svg
   xmlns:dc="http://purl.org/dc/elements/1.1/"
   xmlns:cc="http://creativecommons.org/ns#"
   xmlns:rdf="http://www.w3.org/1999/02/22-rdf-syntax-ns#"
   xmlns:svg="http://www.w3.org/2000/svg"
   xmlns="http://www.w3.org/2000/svg"
   xmlns:sodipodi="http://sodipodi.sourceforge.net/DTD/sodipodi-0.dtd"
   xmlns:inkscape="http://www.inkscape.org/namespaces/inkscape"
   version="1.1"
   id="svg4504"
   width="255"
   height="198"
   viewBox="0 0 255 198"
   sodipodi:docname="user.svg"
   inkscape:version="0.92.2 (5c3e80d, 2017-08-06)">
  <metadata
     id="metadata4510">
    <rdf:RDF>
      <cc:Work
         rdf:about="">
        <dc:format>image/svg+xml</dc:format>
        <dc:type
           rdf:resource="http://purl.org/dc/dcmitype/StillImage" />
        <dc:title></dc:title>
      </cc:Work>
    </rdf:RDF>
  </metadata>
  <defs
     id="defs4508" />
  <sodipodi:namedview
     pagecolor="#ffffff"
     bordercolor="#666666"
     borderopacity="1"
     objecttolerance="10"
     gridtolerance="10"
     guidetolerance="10"
     inkscape:pageopacity="0"
     inkscape:pageshadow="2"
     inkscape:window-width="1920"
     inkscape:window-height="1017"
     id="namedview4506"
     showgrid="false"
     inkscape:zoom="1.5142085"
     inkscape:cx="-98.052509"
     inkscape:cy="27.16866"
     inkscape:window-x="-8"
     inkscape:window-y="-4"
     inkscape:window-maximized="1"
     inkscape:current-layer="svg4504" />
  <path
     style="fill:#323232"
     d="m 30.290273,192.13277 c -0.99904,-2.60344 1.857998,-18.93525 4.454738,-26.56997 7.19588,-21.15676 21.97604,-38.52844 40.88079,-48.04872 l 6.82707,-3.43805 -8.82654,-8.72198 c -9.80606,-9.689897 -14.89914,-18.397007 -17.67785,-30.221977 -6.98411,-29.721337 9.8021,-60.370641 39.01087,-71.2285026 5.011588,-1.862969 8.274789,-3.28105987 19.679809,-3.30907387 11.56598,-0.02841 14.21083,1.36875687 19.94279,3.34928987 14.62561,5.053503 27.17972,16.1598626 34.26511,30.3136116 12.37731,24.724865 6.51531,54.578865 -14.3176,72.916742 -3.37587,2.97157 -6.13795,5.69836 -6.13795,6.05953 0,0.36118 3.92635,2.84858 8.72522,5.52755 15.79491,8.8175 30.37826,25.80176 36.82112,42.88311 3.11086,8.24751 5.45366,19.68363 5.45366,26.6214 v 4.95772 l -6.75,-0.29569 -6.75,-0.29569 -0.2721,-3.5 c -0.7397,-9.51461 -3.62919,-20.10593 -7.89327,-28.93251 -3.76153,-7.78633 -5.98102,-10.85673 -12.71745,-17.59316 -6.64625,-6.64626 -9.91955,-9.0291 -17.63891,-12.84046 -12.45789,-6.15098 -21.22118,-7.96849 -35.47827,-7.35821 -36.195879,1.54938 -63.396289,27.48565 -67.092439,63.97434 l -0.68375,6.75 -6.801898,0.6421 c -7.734417,0.73013 -6.668729,-0.37149 -7.02315,-1.6414 z M 124.6719,106.66058 c 21.00873,-4.45176 36.6657,-23.674807 36.70774,-45.068407 0.0505,-25.72106 -20.70826,-46.460098 -46.50437,-46.460098 -29.845029,0 -52.406179,28.842107 -44.950849,57.465038 4.39806,16.8853 18.54963,30.538947 35.418419,34.172237 7.47947,1.61097 11.31511,1.58938 19.32906,-0.10877 z"
     id="path7077"
     inkscape:connector-curvature="0"
     sodipodi:nodetypes="csscsssssscsssscccscscsscscccsssc" />
</svg>
