<?xml version="1.0" encoding="UTF-8" standalone="no"?>
<!-- Created with Inkscape (http://www.inkscape.org/) -->

<svg
   xmlns:dc="http://purl.org/dc/elements/1.1/"
   xmlns:cc="http://creativecommons.org/ns#"
   xmlns:rdf="http://www.w3.org/1999/02/22-rdf-syntax-ns#"
   xmlns:svg="http://www.w3.org/2000/svg"
   xmlns="http://www.w3.org/2000/svg"
   xmlns:sodipodi="http://sodipodi.sourceforge.net/DTD/sodipodi-0.dtd"
   xmlns:inkscape="http://www.inkscape.org/namespaces/inkscape"
   version="1.1"
   id="svg1382"
   width="189"
   height="192"
   viewBox="0 0 189 192"
   sodipodi:docname="xbox-icon@3x.svg"
   inkscape:version="0.92.2 (5c3e80d, 2017-08-06)">
  <metadata
     id="metadata1388">
    <rdf:RDF>
      <cc:Work
         rdf:about="">
        <dc:format>image/svg+xml</dc:format>
        <dc:type
           rdf:resource="http://purl.org/dc/dcmitype/StillImage" />
        <dc:title></dc:title>
      </cc:Work>
    </rdf:RDF>
  </metadata>
  <defs
     id="defs1386" />
  <sodipodi:namedview
     pagecolor="#ffffff"
     bordercolor="#666666"
     borderopacity="1"
     objecttolerance="10"
     gridtolerance="10"
     guidetolerance="10"
     inkscape:pageopacity="0"
     inkscape:pageshadow="2"
     inkscape:window-width="1920"
     inkscape:window-height="1017"
     id="namedview1384"
     showgrid="false"
     fit-margin-top="0"
     fit-margin-left="0"
     fit-margin-right="0"
     fit-margin-bottom="0"
     inkscape:zoom="1.2291667"
     inkscape:cx="332.87289"
     inkscape:cy="35.79661"
     inkscape:window-x="-8"
     inkscape:window-y="-4"
     inkscape:window-maximized="1"
     inkscape:current-layer="svg1382" />
  <path
     style="fill:#000000"
     d="m 0.11691,149.75 c 0.0806,-29.13627 0.3996,-40.54297 1.02771,-36.75026 0.50095,3.02486 2.41498,9.89298 4.2534,15.26248 10.74696,31.38886 37.5536,55.09378 70.2258,62.10017 6.48512,1.3907 4.5302,1.4792 -34.37382,1.55608 L 0,191.99997 Z m 112.77011,40.70536 c 19.24962,-4.17615 34.04741,-12.27034 48.22672,-26.37936 13.99088,-13.92151 23.57973,-32.4498 26.86311,-51.90686 0.45313,-2.68522 0.83789,13.28286 0.90553,37.58086 L 189,192 147.75,191.9205 c -37.67558,-0.0726 -40.69655,-0.19957 -34.86298,-1.46514 z M 163.11188,154.5 c -2.09633,-6.04074 -7.9242,-17.3269 -12.13478,-23.5 -6.59185,-9.66424 -24.39103,-30.24173 -40.59191,-46.927938 L 94.66024,67.876017 84.72984,77.688009 C 53.91149,108.13889 31.39686,137.52634 25.49877,155 c -0.72643,2.15211 -0.89769,1.82322 -1.23073,-2.36341 C 23.36883,141.33267 28.90435,120.83575 37.13307,105 43.17683,93.369096 56.95298,73.912984 68.43427,60.793181 73.14542,55.409692 77,50.583895 77,50.069187 77,49.554479 72.61589,45.474006 67.25753,41.001468 51.54059,27.882779 37.82299,22.454578 30.26482,26.363056 19.68387,31.834682 4.38089,59.560764 1.12067,79.166718 0.52675,82.73836 0.1952,70.544375 0.11691,42.25 L 0,0 40.75,0.08431 81.5,0.16862 73.38963,2.001571 C 64.48922,4.013073 53.61542,8.323877 47.15561,12.401779 42.21235,15.522323 41.87428,16.2884 46.08879,14.819213 53.83147,12.1201 69.31698,17.956338 85.93893,29.838084 l 8.28742,5.924038 9.63682,-6.548984 c 17.4222,-11.839754 30.95383,-16.644452 39.03505,-13.860244 6.42168,2.212449 3.36855,-0.689641 -5.34065,-5.076438 C 128.84824,5.889597 121.47395,3.260693 113,1.521782 107.15134,0.321598 110.63348,0.178524 147.75001,0.093974 l 41.25,-0.09397 -0.11762,42.25 c -0.0707,25.384266 -0.44192,40.317825 -0.93001,37.409748 -2.90759,-17.323449 -12.01884,-36.026193 -23.70257,-48.654468 -5.97742,-6.460649 -10.31984,-7.736816 -17.15655,-5.042036 -8.92466,3.517774 -21.00509,11.465673 -31.46257,20.699721 l -4.71452,4.162966 7.3431,7.851995 c 21.56692,23.06155 39.44124,51.23558 44.71292,70.47778 1.657,6.04826 2.03759,9.93265 1.8126,18.5 -0.27985,10.65632 -0.30885,10.77495 -1.67291,6.84429 z"
     id="path1935"
     inkscape:connector-curvature="0" />
</svg>
