<svg xmlns="http://www.w3.org/2000/svg" xmlns:xlink="http://www.w3.org/1999/xlink" preserveAspectRatio="xMidYMid" width="10" height="6" viewBox="0 0 10 6">
  <defs>
    <style>
      .cls-1 {
        fill: #fff;
        fill-rule: evenodd;
      }
    </style>
  </defs>
  <path d="M9.715,1.632 L5.859,5.488 C5.817,5.563 5.779,5.641 5.715,5.705 C5.518,5.902 5.258,5.989 5.000,5.979 C4.742,5.989 4.482,5.902 4.285,5.705 C4.221,5.641 4.183,5.563 4.141,5.488 L0.285,1.632 C-0.090,1.257 -0.090,0.649 0.285,0.274 C0.659,-0.101 1.267,-0.101 1.642,0.274 L5.000,3.632 L8.357,0.274 C8.732,-0.101 9.340,-0.101 9.715,0.274 C10.090,0.649 10.090,1.257 9.715,1.632 Z" class="cls-1"/>
</svg>
