<svg xmlns="http://www.w3.org/2000/svg" xmlns:xlink="http://www.w3.org/1999/xlink" preserveAspectRatio="xMidYMid" width="16" height="14" viewBox="0 0 16 14">
  <defs>
    <style>
      .cls-1 {
        fill: #f15454;
        fill-rule: evenodd;
      }
    </style>
  </defs>
  <path d="M11.500,1.999 C12.878,1.999 14.000,3.345 14.000,5.000 C14.000,8.154 10.182,10.712 8.000,11.800 C5.816,10.711 2.000,8.153 2.000,5.000 C2.000,3.345 3.121,1.999 4.500,1.999 C5.143,1.999 5.847,2.439 6.383,3.176 L7.191,4.062 C7.591,4.611 8.409,4.611 8.809,4.062 L9.617,3.176 C10.153,2.439 10.857,1.999 11.500,1.999 M11.500,-0.000 C10.085,-0.000 8.825,0.866 8.000,1.999 C7.175,0.866 5.914,-0.000 4.500,-0.000 C2.015,-0.000 -0.000,2.238 -0.000,5.000 C-0.000,10.718 8.000,14.000 8.000,14.000 C8.000,14.000 16.000,10.718 16.000,5.000 C16.000,2.238 13.985,-0.000 11.500,-0.000 L11.500,-0.000 Z" class="cls-1"/>
</svg>
