<svg xmlns="http://www.w3.org/2000/svg" xmlns:xlink="http://www.w3.org/1999/xlink" preserveAspectRatio="xMidYMid" width="18" height="14" viewBox="0 0 18 14">
  <defs>
    <style>
      .cls-1 {
        fill: #33363b;
        fill-rule: evenodd;
      }
    </style>
  </defs>
  <path d="M17.000,14.000 L12.000,11.045 L12.000,13.000 C12.000,13.552 11.552,14.000 11.000,14.000 L0.430,7.754 C0.164,7.597 -0.000,7.309 -0.000,7.000 C-0.000,6.690 0.164,6.403 0.430,6.245 L11.000,-0.000 C11.552,-0.000 12.000,0.448 12.000,0.999 L12.000,2.954 L17.000,-0.000 C17.552,-0.000 18.000,0.448 18.000,0.999 L18.000,13.000 C18.000,13.552 17.552,14.000 17.000,14.000 ZM10.000,2.914 L3.085,7.000 L10.000,11.086 L10.000,2.914 ZM16.000,2.914 L12.000,5.277 L12.000,8.722 L16.000,11.086 L16.000,2.914 Z" class="cls-1"/>
</svg>
