<svg xmlns="http://www.w3.org/2000/svg" xmlns:xlink="http://www.w3.org/1999/xlink" preserveAspectRatio="xMidYMid" width="16" height="16" viewBox="0 0 16 16">
  <defs>
    <style>
      .cls-1 {
        fill: #fff;
        fill-rule: evenodd;
      }
    </style>
  </defs>
  <path d="M15.164,6.860 L13.839,6.640 C13.687,5.982 13.426,5.368 13.077,4.813 L13.815,3.780 C14.097,3.386 14.052,2.846 13.710,2.504 L13.496,2.290 C13.153,1.948 12.614,1.903 12.220,2.184 L11.186,2.922 C10.632,2.574 10.017,2.313 9.360,2.161 L9.139,0.835 C9.059,0.353 8.642,-0.000 8.153,-0.000 L7.847,-0.000 C7.358,-0.000 6.941,0.353 6.861,0.835 L6.640,2.161 C5.983,2.313 5.368,2.574 4.813,2.922 L3.780,2.184 C3.386,1.903 2.847,1.948 2.504,2.290 L2.290,2.504 C1.948,2.846 1.903,3.386 2.184,3.780 L2.922,4.813 C2.574,5.368 2.313,5.982 2.161,6.640 L0.836,6.860 C0.353,6.941 -0.000,7.358 -0.000,7.847 L-0.000,8.152 C-0.000,8.642 0.353,9.059 0.836,9.139 L2.161,9.360 C2.313,10.017 2.574,10.631 2.922,11.186 L2.184,12.220 C1.903,12.614 1.948,13.153 2.290,13.495 L2.504,13.710 C2.847,14.052 3.386,14.097 3.780,13.815 L4.813,13.077 C5.368,13.426 5.983,13.686 6.640,13.839 L6.861,15.164 C6.941,15.647 7.358,16.000 7.847,16.000 L8.153,16.000 C8.642,16.000 9.059,15.647 9.139,15.164 L9.360,13.839 C10.017,13.686 10.632,13.426 11.186,13.077 L12.220,13.815 C12.614,14.097 13.153,14.052 13.496,13.710 L13.710,13.495 C14.052,13.153 14.097,12.614 13.815,12.220 L13.077,11.186 C13.426,10.631 13.687,10.017 13.839,9.360 L15.164,9.139 C15.647,9.059 16.000,8.642 16.000,8.152 L16.000,7.847 C16.000,7.358 15.647,6.941 15.164,6.860 ZM8.000,11.000 C6.343,11.000 5.000,9.657 5.000,7.999 C5.000,6.343 6.343,5.000 8.000,5.000 C9.657,5.000 11.000,6.343 11.000,7.999 C11.000,9.657 9.657,11.000 8.000,11.000 Z" class="cls-1"/>
</svg>
