<svg xmlns="http://www.w3.org/2000/svg" xmlns:xlink="http://www.w3.org/1999/xlink" preserveAspectRatio="xMidYMid" width="14" height="14" viewBox="0 0 14 14">
  <defs>
    <style>
      .cls-1 {
        fill: #48b96d;
        fill-rule: evenodd;
      }
    </style>
  </defs>
  <path d="M5.000,4.998 L8.981,4.998 L8.981,4.999 C8.987,4.999 8.993,4.998 9.000,4.998 L10.604,4.998 L7.286,1.677 C6.904,1.296 6.904,0.677 7.286,0.295 L7.300,0.281 C7.681,-0.101 8.300,-0.101 8.681,0.281 L13.598,5.201 C13.633,5.227 13.668,5.252 13.699,5.283 L13.705,5.289 C13.706,5.290 13.707,5.292 13.708,5.292 L13.713,5.298 C13.747,5.332 13.774,5.369 13.802,5.406 C13.811,5.418 13.821,5.428 13.829,5.440 C13.943,5.606 14.000,5.799 13.999,5.994 C13.999,5.995 14.000,5.997 14.000,5.998 C14.000,6.000 13.999,6.001 13.999,6.003 C14.000,6.196 13.943,6.390 13.829,6.556 C13.821,6.569 13.811,6.578 13.803,6.590 C13.775,6.627 13.747,6.665 13.713,6.699 L13.708,6.704 C13.707,6.705 13.706,6.706 13.705,6.707 L13.699,6.712 C13.668,6.744 13.633,6.769 13.598,6.795 L8.681,11.715 C8.300,12.097 7.681,12.097 7.300,11.715 L7.286,11.701 C6.904,11.320 6.904,10.701 7.286,10.319 L10.604,6.999 L9.000,6.999 C8.993,6.999 8.987,6.997 8.981,6.997 L8.981,6.999 L5.000,6.999 C3.346,6.999 2.000,8.345 2.000,10.000 L2.000,13.000 C2.000,13.552 1.552,14.000 1.000,14.000 C0.448,14.000 -0.000,13.552 -0.000,13.000 L-0.000,10.000 C-0.000,7.238 2.239,4.998 5.000,4.998 Z" class="cls-1"/>
</svg>
