<svg xmlns="http://www.w3.org/2000/svg" xmlns:xlink="http://www.w3.org/1999/xlink" preserveAspectRatio="xMidYMid" width="16" height="14" viewBox="0 0 16 14">
  <defs>
    <style>
      .cls-1 {
        fill: #35363a;
        fill-rule: evenodd;
      }
    </style>
  </defs>
  <path d="M13.466,10.836 C13.031,11.147 12.428,10.998 12.162,10.524 L12.120,10.449 C11.875,10.012 12.006,9.461 12.406,9.173 C13.521,8.372 14.108,7.580 14.076,6.904 C14.037,6.086 13.154,5.311 12.445,4.838 C12.062,4.583 11.919,4.075 12.108,3.644 L12.145,3.558 C12.377,3.028 13.003,2.839 13.476,3.150 C14.473,3.808 15.906,5.051 15.992,6.799 C16.062,8.231 15.214,9.586 13.466,10.836 ZM9.246,14.000 C9.135,14.000 9.020,13.968 8.911,13.898 L4.847,11.089 C4.764,11.031 4.665,11.000 4.563,11.000 L0.996,11.000 C0.444,11.000 -0.004,10.552 -0.004,10.000 L-0.004,4.000 C-0.004,3.447 0.444,3.000 0.996,3.000 L4.563,3.000 C4.665,3.000 4.764,2.969 4.847,2.911 L8.911,0.101 C9.020,0.031 9.135,-0.000 9.246,-0.000 C9.639,-0.000 9.996,0.399 9.996,0.949 L9.996,13.050 C9.996,13.600 9.639,14.000 9.246,14.000 ZM7.996,3.165 L5.857,4.645 L5.600,4.823 C5.433,4.938 5.234,5.000 5.031,5.000 L4.719,5.000 L2.496,5.000 C2.220,5.000 1.996,5.223 1.996,5.500 L1.996,8.499 C1.996,8.776 2.220,9.000 2.496,9.000 L4.719,9.000 L5.031,9.000 C5.234,9.000 5.433,9.062 5.600,9.177 L5.857,9.355 L7.996,10.835 L7.996,3.165 Z" class="cls-1"/>
</svg>
