<svg xmlns="http://www.w3.org/2000/svg" width="63" height="64" viewBox="0 0 63 64">
    <path fill="#FFF" fill-rule="nonzero" d="M14.033 5.43c-.032.024-.056.052-.086.077.179-.192.436-.398.605-.51C19.484 1.74 25.182 0 31.504 0a30.963 30.963 0 0 1 16.18 4.544c.343.207 1.278.858 1.76 1.45v.003c-4.561-5.11-17.97 5.852-17.97 5.852-4.637-3.631-8.903-6.106-12.079-6.987-2.654-.738-4.49-.121-5.362.568zm40.578 4.83c-.14-.157-.291-.304-.43-.466-1.154-1.285-2.572-1.596-3.85-1.512-1.163.37-6.538 2.338-13.161 8.69 0 0 7.456 7.365 12.022 14.894 4.562 7.528 7.29 13.445 5.613 21.658C59.895 47.841 63 40.29 63 31.998c0-8.392-3.18-16.03-8.389-21.738zM43.23 35.082c-2.023-2.306-5.032-5.609-9.006-9.623-.87-.878-1.787-1.794-2.752-2.741 0 0-1.452 1.475-3.342 3.415v-.003c-2.42 2.482-5.556 5.72-7.297 7.611-3.1 3.36-11.981 13.913-12.48 19.83 0 0-1.977-4.693 2.36-15.517 2.833-7.076 11.393-17.701 14.968-21.164 0 0-3.267-3.65-7.365-6.173l-.025-.007s-.046-.038-.12-.085C16.2 9.431 14.048 8.511 11.976 8.39c-2.115.152-3.455 1.724-3.455 1.724C3.235 15.838 0 23.533 0 32c0 17.671 14.104 32 31.504 32 9.233 0 17.541-4.044 23.305-10.473-.002-.01-.663-4.229-4.902-10.28-.996-1.418-4.637-5.842-6.677-8.165z"/>
</svg>
