<svg xmlns="http://www.w3.org/2000/svg" xmlns:xlink="http://www.w3.org/1999/xlink" preserveAspectRatio="xMidYMid" width="14" height="15.969" viewBox="0 0 14 15.969">
  <defs>
    <style>
      .cls-1 {
        fill: #5bc1f5;
        fill-rule: evenodd;
      }
    </style>
  </defs>
  <path d="M7.023,1.985 C9.769,1.985 12.004,4.226 12.004,6.980 C12.004,9.734 9.769,11.976 7.037,11.976 L6.978,11.972 C6.923,11.968 6.868,11.965 6.813,11.962 L6.477,11.949 L6.156,12.045 L2.815,13.046 L3.220,11.446 L3.443,10.566 L2.927,9.819 C2.348,8.980 2.041,7.998 2.041,6.980 C2.041,4.226 4.276,1.985 7.023,1.985 M7.023,-0.014 C3.168,-0.014 0.042,3.118 0.042,6.980 C0.042,8.457 0.502,9.825 1.283,10.954 L0.011,15.972 L6.729,13.959 C6.827,13.963 6.924,13.974 7.023,13.974 C10.878,13.974 14.003,10.843 14.003,6.980 C14.003,3.118 10.878,-0.014 7.023,-0.014 L7.023,-0.014 Z" class="cls-1"/>
</svg>
