<svg xmlns="http://www.w3.org/2000/svg" xmlns:xlink="http://www.w3.org/1999/xlink" preserveAspectRatio="xMidYMid" width="14" height="16" viewBox="0 0 14 16">
  <defs>
    <style>
      .cls-1 {
        fill: #35363a;
        fill-rule: evenodd;
      }
    </style>
  </defs>
  <path d="M13.000,10.000 L2.000,10.000 L2.000,15.000 C2.000,15.552 1.552,16.000 1.000,16.000 C0.448,16.000 -0.000,15.552 -0.000,15.000 L-0.000,9.000 L-0.000,1.000 C-0.000,0.447 0.448,0.000 1.000,0.000 L13.000,0.000 C13.552,0.000 14.000,0.447 14.000,1.000 L14.000,9.000 C14.000,9.552 13.552,10.000 13.000,10.000 ZM12.000,2.500 C12.000,2.224 11.776,2.000 11.500,2.000 L2.500,2.000 C2.224,2.000 2.000,2.224 2.000,2.500 L2.000,7.500 C2.000,7.776 2.224,8.000 2.500,8.000 L11.500,8.000 C11.776,8.000 12.000,7.776 12.000,7.500 L12.000,2.500 Z" class="cls-1"/>
</svg>
