<svg xmlns="http://www.w3.org/2000/svg" xmlns:xlink="http://www.w3.org/1999/xlink" preserveAspectRatio="xMidYMid" width="18" height="14" viewBox="0 0 18 14">
  <defs>
    <style>
      .cls-1 {
        fill: #33363b;
        fill-rule: evenodd;
      }
    </style>
  </defs>
  <path d="M17.569,7.754 L7.000,14.000 C6.448,14.000 6.000,13.552 6.000,13.000 L6.000,11.045 L1.000,14.000 C0.448,14.000 -0.000,13.552 -0.000,13.000 L-0.000,0.999 C-0.000,0.448 0.448,-0.000 1.000,-0.000 L6.000,2.954 L6.000,0.999 C6.000,0.448 6.448,-0.000 7.000,-0.000 L17.569,6.245 C17.836,6.403 18.000,6.690 18.000,7.000 C18.000,7.309 17.836,7.597 17.569,7.754 ZM2.000,11.086 L6.000,8.722 L6.000,5.277 L2.000,2.914 L2.000,11.086 ZM8.000,2.914 L8.000,11.086 L14.915,7.000 L8.000,2.914 Z" class="cls-1"/>
</svg>
