<svg xmlns="http://www.w3.org/2000/svg" xmlns:xlink="http://www.w3.org/1999/xlink" preserveAspectRatio="xMidYMid" width="18" height="16" viewBox="0 0 18 16">
  <defs>
    <style>
      .cls-1 {
        fill: #35363a;
        fill-rule: evenodd;
      }
    </style>
  </defs>
  <path d="M14.000,1.000 C14.000,0.448 13.552,-0.001 13.000,-0.001 L5.000,-0.001 C4.448,-0.001 4.000,0.448 4.000,1.000 L-0.000,8.000 L-0.000,15.000 C-0.000,15.552 0.448,16.000 1.000,16.000 L17.000,16.000 C17.552,16.000 18.000,15.552 18.000,15.000 L18.000,8.000 L14.000,1.000 ZM5.732,2.000 L12.268,2.000 L15.125,7.000 L11.500,7.000 C11.224,7.000 11.000,7.224 11.000,7.500 L11.000,7.911 C11.000,8.955 10.239,9.889 9.200,9.990 C8.008,10.106 7.000,9.169 7.000,8.000 L7.000,7.500 C7.000,7.224 6.776,7.000 6.500,7.000 L2.875,7.000 L5.732,2.000 ZM15.500,14.000 L2.500,14.000 C2.224,14.000 2.000,13.776 2.000,13.500 L2.000,9.000 L5.131,9.000 C5.576,10.724 7.137,12.000 9.000,12.000 C10.863,12.000 12.424,10.724 12.869,9.000 L16.000,9.000 L16.000,13.500 C16.000,13.776 15.776,14.000 15.500,14.000 Z" class="cls-1"/>
</svg>
