<svg xmlns="http://www.w3.org/2000/svg" xmlns:xlink="http://www.w3.org/1999/xlink" preserveAspectRatio="xMidYMid" width="16" height="12" viewBox="0 0 16 12">
  <defs>
    <style>
      .cls-1 {
        fill: #35363a;
        fill-rule: evenodd;
      }
    </style>
  </defs>
  <path d="M15.000,-0.000 L1.000,-0.000 C0.448,-0.000 -0.000,0.448 -0.000,1.000 L-0.000,2.783 L-0.000,11.000 C-0.000,11.552 0.448,12.000 1.000,12.000 L15.000,12.000 C15.552,12.000 16.000,11.552 16.000,11.000 L16.000,2.783 L16.000,1.000 C16.000,0.448 15.552,-0.000 15.000,-0.000 ZM13.618,1.999 L8.000,5.831 L2.382,1.999 L13.618,1.999 ZM14.000,9.500 C14.000,9.776 13.776,10.000 13.500,10.000 L2.500,10.000 C2.224,10.000 2.000,9.776 2.000,9.500 L2.000,4.137 L7.497,7.860 C7.652,7.953 7.826,8.000 8.000,8.000 C8.174,8.000 8.348,7.953 8.503,7.860 L14.000,4.137 L14.000,9.500 Z" class="cls-1"/>
</svg>
