<svg xmlns="http://www.w3.org/2000/svg" xmlns:xlink="http://www.w3.org/1999/xlink" preserveAspectRatio="xMidYMid" width="40" height="40" viewBox="0 0 40 40">
  <defs>
    <style>
      .cls-1 {
        fill: #33363b;
        fill-rule: evenodd;
      }
    </style>
  </defs>
  <path d="M20.000,40.000 C8.954,40.000 -0.000,31.045 -0.000,20.000 C-0.000,8.954 8.954,-0.001 20.000,-0.001 C31.046,-0.001 40.000,8.954 40.000,20.000 C40.000,31.045 31.046,40.000 20.000,40.000 ZM20.000,2.000 C10.059,2.000 2.000,10.059 2.000,20.000 C2.000,29.941 10.059,37.999 20.000,37.999 C29.941,37.999 38.000,29.941 38.000,20.000 C38.000,10.059 29.941,2.000 20.000,2.000 ZM16.000,27.000 C15.448,27.000 15.000,26.552 15.000,26.000 L15.000,13.999 C15.000,13.448 15.448,13.000 16.000,13.000 L26.569,19.245 C26.836,19.403 27.000,19.690 27.000,20.000 C27.000,20.309 26.836,20.597 26.569,20.754 L16.000,27.000 ZM17.000,15.914 L17.000,24.086 L23.915,20.000 L17.000,15.914 Z" class="cls-1"/>
</svg>
