<svg xmlns="http://www.w3.org/2000/svg" xmlns:xlink="http://www.w3.org/1999/xlink" preserveAspectRatio="xMidYMid" width="18" height="16" viewBox="0 0 18 16">
  <defs>
    <style>
      .cls-1 {
        fill: #35363a;
        fill-rule: evenodd;
      }
    </style>
  </defs>
  <path d="M16.000,6.000 L16.000,15.000 C16.000,15.552 15.552,16.000 15.000,16.000 L3.000,16.000 C2.448,16.000 2.000,15.552 2.000,15.000 L2.000,6.000 L-0.000,6.000 L-0.000,5.000 C-0.000,4.448 0.448,4.000 1.000,4.000 L3.000,4.000 L5.000,4.000 L5.000,1.000 C5.000,0.448 5.448,-0.000 6.000,-0.000 L12.000,-0.000 C12.552,-0.000 13.000,0.448 13.000,1.000 L13.000,4.000 L15.000,4.000 L17.000,4.000 C17.552,4.000 18.000,4.448 18.000,5.000 L18.000,6.000 L16.000,6.000 ZM11.000,2.000 L7.000,2.000 L7.000,4.000 L11.000,4.000 L11.000,2.000 ZM14.000,6.000 L13.000,6.000 L5.000,6.000 L4.000,6.000 L4.000,14.000 L14.000,14.000 L14.000,6.000 ZM6.500,8.000 L7.500,8.000 C7.776,8.000 8.000,8.224 8.000,8.499 L8.000,11.500 C8.000,11.776 7.776,12.000 7.500,12.000 L6.500,12.000 C6.224,12.000 6.000,11.776 6.000,11.500 L6.000,8.499 C6.000,8.224 6.224,8.000 6.500,8.000 ZM10.500,8.000 L11.500,8.000 C11.776,8.000 12.000,8.224 12.000,8.499 L12.000,11.500 C12.000,11.776 11.776,12.000 11.500,12.000 L10.500,12.000 C10.224,12.000 10.000,11.776 10.000,11.500 L10.000,8.499 C10.000,8.224 10.224,8.000 10.500,8.000 Z" class="cls-1"/>
</svg>
