<svg xmlns="http://www.w3.org/2000/svg" xmlns:xlink="http://www.w3.org/1999/xlink" preserveAspectRatio="xMidYMid" width="12" height="10" viewBox="0 0 12 10">
  <defs>
    <style>
      .cls-1 {
        fill: #33363b;
        fill-rule: evenodd;
      }
    </style>
  </defs>
  <path d="M12.000,5.000 C12.000,5.009 11.995,5.017 11.995,5.027 C11.997,5.276 11.905,5.525 11.715,5.715 C11.653,5.778 11.576,5.813 11.503,5.855 L7.642,9.715 C7.267,10.090 6.660,10.090 6.285,9.715 C5.910,9.340 5.910,8.733 6.285,8.358 L8.643,6.000 L1.000,6.000 C0.448,6.000 0.000,5.552 0.000,5.000 C0.000,4.447 0.448,4.000 1.000,4.000 L8.643,4.000 L6.285,1.642 C5.910,1.267 5.910,0.660 6.285,0.285 C6.660,-0.090 7.267,-0.090 7.642,0.285 L11.498,4.141 C11.573,4.183 11.651,4.221 11.715,4.285 C11.906,4.476 11.997,4.727 11.994,4.977 C11.994,4.985 12.000,4.991 12.000,5.000 Z" class="cls-1"/>
</svg>
